PathFileType	4	(X/Y/Z)	subject01_walk1.trc
DataRate	CameraRate	NumFrames	NumMarkers	Units	OrigDataRate	OrigDataStartFrame	OrigNumFrames
60.00	60.00	       8	41	mm	60.00	226	       900
Frame#	Time	R.ASIS			L.ASIS			V.Sacral			R.Thigh.Upper			R.Thigh.Front			R.Thigh.Rear			L.Thigh.Upper			L.Thigh.Front			L.Thigh.Rear			R.Shank.Upper			R.Shank.Front			R.Shank.Rear			L.Shank.Upper			L.Shank.Front			L.Shank.Rear			R.Heel			R.Midfoot.Sup			R.Midfoot.Lat			R.Toe.Tip			L.Heel			L.Midfoot.Sup			L.Midfoot.Lat			L.Toe.Tip			Sternum			R.Acromium			L.Acromium			R.Bicep			L.Bicep			R.Elbow			L.Elbow			R.Wrist.Med			R.Wrist.Lat			L.Wrist.Med			L.Wrist.Lat			R.Toe.Lat			R.Toe.Med			L.Toe.Lat			L.Toe.Med			R.Temple			L.Temple			Top.Head			
		X1	Y1	Z1	X2	Y2	Z2	X3	Y3	Z3	X4	Y4	Z4	X5	Y5	Z5	X6	Y6	Z6	X7	Y7	Z7	X8	Y8	Z8	X9	Y9	Z9	X10	Y10	Z10	X11	Y11	Z11	X12	Y12	Z12	X13	Y13	Z13	X14	Y14	Z14	X15	Y15	Z15	X16	Y16	Z16	X17	Y17	Z17	X18	Y18	Z18	X19	Y19	Z19	X20	Y20	Z20	X21	Y21	Z21	X22	Y22	Z22	X23	Y23	Z23	X24	Y24	Z24	X25	Y25	Z25	X26	Y26	Z26	X27	Y27	Z27	X28	Y28	Z28	X29	Y29	Z29	X30	Y30	Z30	X31	Y31	Z31	X32	Y32	Z32	X33	Y33	Z33	X34	Y34	Z34	X35	Y35	Z35	X36	Y36	Z36	X37	Y37	Z37	X38	Y38	Z38	X39	Y39	Z39	X40	Y40	Z40	X41	Y41	Z41	

226	3.750000	612.842410	1044.823730	142.774580	633.395200	1039.347170	-117.102890	425.079620	1041.165770	4.108500	511.474240	730.229490	188.773250	565.903930	653.703490	102.447610	474.246400	615.308840	179.734390	661.736630	745.460080	-178.140000	759.348140	740.579530	-115.787670	700.087830	643.270390	-165.042190	346.956910	469.753270	170.194270	398.312620	401.349980	118.623770	318.359280	388.762660	176.051610	758.732600	445.526430	-166.645370	814.770630	404.384610	-113.013070	744.418270	399.757320	-175.919070	96.437990	139.355070	92.855160	233.734250	95.145580	61.806570	221.082490	82.214600	168.655590	351.487090	43.842820	102.883930	748.588930	70.405930	-100.544240	919.955380	89.211490	-81.833150	893.433780	78.878860	-162.475460	1026.689330	93.967900	-90.210910	649.154050	1351.016360	-21.822470	553.370420	1450.133790	182.778490	576.523930	1444.711910	-236.022140	586.252810	1247.589110	234.121400	565.661500	1208.639280	-261.244840	559.460750	1141.066770	269.521240	501.395140	1119.581540	-294.494660	753.531130	958.509640	230.418410	727.148620	932.841190	285.634490	593.965520	884.068850	-254.833740	543.410890	876.506710	-310.118840	291.783600	34.481110	187.502610	304.215390	35.862220	74.193560	966.275880	70.624910	-168.887530	977.315610	81.832500	-66.765600	683.073240	1624.101200	42.417690	687.794010	1617.939090	-97.760300	609.213380	1777.806400	-33.982100	
227	3.767000	616.893010	1045.827760	139.220840	637.253970	1040.896120	-120.173230	428.768070	1041.580080	0.595560	519.963260	730.381410	186.702610	574.168700	653.511840	101.281650	483.277530	614.420100	179.304990	666.200870	747.256710	-181.279170	762.864500	742.080320	-115.025750	705.702700	645.361630	-167.108150	356.430600	473.395900	170.845080	402.584290	400.440490	120.739970	322.419530	392.490600	175.762190	758.485230	445.109220	-168.321590	811.702390	402.459230	-113.964780	743.223450	400.067600	-178.598210	89.716720	156.473160	92.771640	222.868060	101.373790	62.442880	208.512120	88.382560	168.680250	333.509920	42.985130	102.362590	732.872500	71.963560	-101.900890	910.123780	81.599200	-90.837510	871.587890	69.185070	-161.918550	1012.607670	83.424560	-90.062840	651.660770	1352.444700	-27.267240	555.403080	1451.320070	178.111180	577.580750	1444.897460	-241.043460	585.693790	1249.449220	229.277910	567.783570	1208.623540	-265.249540	557.826660	1143.060180	264.959530	505.115360	1118.545650	-296.561220	747.217160	955.453060	229.929720	720.922240	930.890810	284.639590	599.308470	884.173220	-258.017760	548.028500	876.216190	-312.478030	269.672490	30.319150	186.846100	286.745420	35.454830	74.005230	951.327390	62.010210	-168.956050	962.109310	73.428450	-66.888720	684.927490	1625.986820	37.056710	689.501830	1619.223630	-103.356270	610.578430	1778.545780	-39.698180	
228	3.783000	620.252140	1046.984990	135.567630	640.795840	1043.500000	-124.112370	432.133330	1042.429440	-2.974270	526.496830	728.502620	184.597840	585.527220	652.994930	101.257150	495.108490	612.850650	178.097900	668.941470	749.190310	-184.697200	766.800660	744.001220	-117.074190	708.788390	648.386780	-169.940320	367.585600	473.951900	171.678630	413.164520	398.982090	121.057860	329.217590	397.232940	175.311070	755.551640	444.854310	-171.902660	807.477780	400.921690	-116.912780	739.837340	400.266940	-181.850800	87.252170	176.367750	91.891410	214.703660	109.199790	62.589190	198.019270	96.916120	168.134550	316.502500	41.521050	101.977290	716.547120	72.936230	-103.427920	896.651550	76.578140	-96.307610	852.072510	63.124490	-162.826750	997.244080	75.024130	-91.301250	654.626280	1354.533940	-33.753970	558.304750	1453.779660	172.362780	577.649780	1446.761720	-246.638200	585.740480	1251.740600	223.950550	571.540220	1209.736690	-269.607390	555.979550	1145.723880	260.294770	508.984530	1119.148560	-299.906860	741.900760	952.489870	229.484890	711.692750	930.701660	284.743710	604.832280	885.055660	-261.457580	553.132080	876.443970	-315.815000	258.556850	36.188380	187.238390	270.652100	36.393840	73.650850	935.431030	55.463800	-170.163310	945.990720	67.190510	-68.161650	685.638850	1627.069460	31.165620	690.863650	1620.379270	-108.574660	612.095210	1780.651730	-45.157830	
229	3.800000	622.904540	1049.033810	131.509080	644.318790	1046.501460	-127.565980	434.963680	1043.673220	-6.706140	540.163820	730.064270	182.796340	598.736940	652.981930	101.767810	509.901180	610.458680	178.363660	669.282040	750.876040	-188.129990	767.191470	744.351140	-121.732600	706.959900	649.502990	-174.657010	384.971800	475.587680	170.086880	425.752140	398.021700	121.120180	342.546780	399.352630	175.195370	751.490720	445.063420	-175.993450	800.590940	399.763490	-120.246270	734.110660	400.261780	-185.247940	89.887700	198.712620	90.044240	209.887050	118.698280	62.218350	190.201200	108.098930	166.959400	300.871730	39.329510	101.945920	699.533940	73.498950	-104.881020	877.909850	74.783750	-94.227910	837.799260	62.037430	-164.965610	980.665710	68.406390	-93.105370	655.874080	1357.331420	-38.534700	559.577030	1456.098140	167.334550	579.180240	1448.657100	-251.817060	585.879390	1254.868530	219.674360	574.672360	1211.036380	-274.390410	553.925720	1148.908810	255.630280	513.616330	1119.936400	-303.149540	734.498960	949.503170	230.089950	703.374150	929.319030	285.650760	610.255490	886.258300	-264.676540	558.031980	877.425900	-317.492070	243.786530	39.326990	186.011890	256.837070	39.416760	73.243430	918.797850	50.828700	-171.825960	929.082520	62.653320	-69.879890	687.086610	1628.854980	26.223130	692.914730	1622.721920	-113.247940	614.474430	1783.297240	-50.613410	
230	3.817000	624.070010	1050.848390	127.562120	646.984990	1049.363040	-131.113270	437.150630	1045.235470	-10.583340	548.976680	728.609440	179.355120	616.348330	654.225220	101.670600	528.004460	608.763240	177.823820	667.480900	752.290100	-191.513600	766.411380	743.419370	-127.612960	703.295530	649.730830	-178.083250	403.716250	477.174990	170.674420	441.760680	396.919590	122.759210	357.552640	403.109740	175.121480	742.764950	444.568510	-179.209110	792.132260	397.846770	-123.155780	726.201050	400.052090	-188.401350	98.021910	222.639430	87.135150	208.961650	129.666060	61.366480	185.769350	121.742580	165.199890	287.348630	36.711620	102.449970	681.882510	73.871830	-106.120810	855.874820	75.084350	-87.165530	826.531680	64.147710	-167.393710	963.138370	63.277420	-94.796480	657.859800	1360.038210	-43.382370	560.321470	1459.328000	162.937120	580.371700	1451.016110	-256.204800	582.484800	1256.832280	215.143020	578.421330	1212.615840	-278.332120	551.615420	1152.400880	251.152770	517.735720	1121.196170	-306.990390	725.896120	947.163700	231.161250	693.230470	928.346800	285.855770	616.867550	888.472780	-267.208620	564.100340	878.579710	-319.889980	229.733150	46.185000	185.464370	246.264010	44.949840	72.925700	901.583130	47.813410	-173.340420	911.519960	59.320470	-71.494030	686.425780	1630.285520	22.338870	694.492310	1625.171020	-118.022190	616.444950	1785.475460	-54.800260	
231	3.833000	625.207150	1052.695070	124.124930	648.996340	1052.574220	-134.548890	438.678500	1047.048950	-14.483610	561.216610	728.925840	179.929870	632.455020	656.487120	102.929100	544.459230	607.961730	177.896960	664.275210	753.623050	-194.821370	763.900090	742.568480	-131.949970	697.834720	650.490480	-180.954650	425.310270	479.939970	170.625700	459.853090	397.541780	123.325160	375.108220	407.905610	175.045640	733.135800	443.558410	-181.510590	781.396000	396.160950	-125.417820	716.416630	399.698670	-191.081380	111.237250	246.664260	83.167780	212.241100	141.616490	60.106580	185.419250	137.178700	163.006150	277.177310	34.590170	103.575090	663.744690	74.171880	-107.125620	833.617310	75.747490	-80.210180	814.347050	66.712070	-169.192750	944.995060	59.438810	-96.045020	659.423710	1362.810670	-46.559970	560.441530	1462.472050	159.255690	582.024660	1453.616460	-260.257510	583.304020	1260.675050	211.760590	581.031680	1215.211300	-281.211460	548.940310	1155.984500	247.049260	522.738220	1123.422610	-312.003360	717.567320	946.100950	232.579160	683.710820	928.056640	286.382970	623.237370	890.524600	-269.194790	570.701170	880.478940	-322.633420	218.786440	56.147090	184.395840	239.969800	52.923200	72.851890	883.875240	46.023080	-174.382200	893.441890	56.832630	-72.759570	689.016300	1632.630490	18.394650	695.242370	1626.912960	-121.532680	618.365840	1788.112920	-58.902020	
232	3.850000	626.177190	1055.139280	120.706240	650.637390	1055.387450	-138.333880	439.607640	1049.087520	-18.244280	572.065980	729.802190	177.140500	647.448850	659.775940	103.367380	562.324520	608.076110	176.877200	660.281250	755.011410	-197.953520	759.856570	741.783260	-135.381160	691.398930	650.751830	-184.267940	448.307710	482.173000	170.121110	479.051480	398.941680	123.411400	394.307710	413.696350	173.319760	724.017400	442.748290	-184.263350	770.319760	394.909300	-127.246900	705.106690	399.291230	-193.276080	128.110180	268.910580	78.228700	219.739750	153.864730	58.528840	189.630980	153.362870	160.547150	272.174840	34.453040	105.280200	645.321720	74.390360	-107.934210	812.474000	75.959690	-75.682980	799.713750	68.444970	-170.124010	926.510130	56.676450	-96.825460	660.941830	1365.519410	-49.504990	559.824580	1465.426640	155.981860	582.998170	1456.360960	-262.690220	581.745240	1263.723020	208.784240	587.595950	1217.608890	-285.386320	545.782780	1159.517330	243.459180	529.501340	1124.878420	-315.036960	708.332820	943.924870	233.713010	673.650330	927.933900	287.163760	630.551210	893.457580	-271.840610	578.728580	882.762210	-325.370700	210.305970	68.043360	181.577530	239.080890	62.782340	73.093990	865.721560	45.010100	-174.931430	875.033940	54.967330	-73.658690	690.452880	1635.676880	14.961960	695.978030	1629.039180	-124.691560	619.995300	1790.760130	-62.853070	
233	3.867000	626.490050	1058.771480	117.053670	650.080870	1058.345210	-142.163960	440.034330	1051.372680	-21.706050	585.360290	731.679140	174.264220	662.824710	665.270140	103.580060	578.406070	610.085750	174.928480	655.833980	756.457700	-200.813810	752.172180	739.758850	-137.381810	683.788880	651.802610	-186.192310	470.007660	487.288670	168.760040	498.990970	401.797270	122.910000	414.744320	420.020810	173.104610	711.005920	442.117550	-185.556120	756.585390	393.826600	-128.373540	692.536380	398.917540	-195.093200	146.668150	287.640720	72.505990	231.198870	165.650890	56.723430	198.534560	169.051710	157.912410	274.240080	37.695260	107.406040	626.741760	74.512070	-108.515590	792.449160	75.700860	-73.520290	782.972530	69.240620	-170.437390	907.870240	54.711460	-97.262670	660.043880	1368.701170	-50.299930	559.156010	1468.600100	153.024670	586.437560	1458.494630	-265.917600	579.591250	1267.037350	206.228010	592.190730	1220.018430	-287.953280	542.051760	1162.970210	240.465180	536.114140	1126.946410	-320.124760	699.828370	943.500310	236.337110	664.345640	928.057980	288.243620	638.336550	896.466920	-273.095210	587.283260	885.045780	-328.053500	213.607280	80.157410	178.509220	244.682310	73.675000	73.558820	847.158020	44.371320	-175.157270	856.474060	53.581680	-74.242480	689.176760	1637.942140	11.991210	696.594420	1631.603520	-127.661130	621.637760	1793.702880	-65.934620	
